<svg width="40" height="40" viewBox="0 0 40 40" fill="none" xmlns="http://www.w3.org/2000/svg">
<g clip-path="url(#clip0_105_4)">
<g filter="url(#filter0_d_105_4)">
<path d="M28.154 32.2947C31.4406 34.6039 35.7545 30.9767 34.0674 27.3225L24.8077 7.26631C22.9209 3.17834 17.0747 3.24477 15.0936 7.37676L5.37507 27.649C3.60447 31.3424 7.83688 34.8724 11.1768 32.4879C16.3035 28.8276 23.1092 28.7501 28.154 32.2947Z" fill="white"/>
</g>
<path d="M25.0776 27.1667C27.1558 28.6254 29.8891 26.3261 28.8245 24.0148L22.9809 11.3289C21.7903 8.74323 18.0901 8.79023 16.8328 11.4071L10.6646 24.2458C9.54088 26.5848 12.2166 28.8154 14.3325 27.3034C17.5803 24.9824 21.8877 24.9276 25.0776 27.1667Z" fill="#EC5C08"/>
</g>
<defs>
<filter id="filter0_d_105_4" x="0.958008" y="4.23865" width="37.4873" height="37.026" filterUnits="userSpaceOnUse" color-interpolation-filters="sRGB">
<feFlood flood-opacity="0" result="BackgroundImageFix"/>
<feColorMatrix in="SourceAlpha" type="matrix" values="0 0 0 0 0 0 0 0 0 0 0 0 0 0 0 0 0 0 127 0" result="hardAlpha"/>
<feOffset dy="4"/>
<feGaussianBlur stdDeviation="2"/>
<feComposite in2="hardAlpha" operator="out"/>
<feColorMatrix type="matrix" values="0 0 0 0 0 0 0 0 0 0 0 0 0 0 0 0 0 0 0.25 0"/>
<feBlend mode="normal" in2="BackgroundImageFix" result="effect1_dropShadow_105_4"/>
<feBlend mode="normal" in="SourceGraphic" in2="effect1_dropShadow_105_4" result="shape"/>
</filter>
<clipPath id="clip0_105_4">
<rect width="40" height="40" fill="white"/>
</clipPath>
</defs>
</svg>
