<svg width="299" height="294" viewBox="0 0 299 294" fill="none" xmlns="http://www.w3.org/2000/svg">
<path d="M26.432 272.704C21.568 272.704 17.408 271.744 13.952 269.824C10.496 267.904 7.82933 265.216 5.952 261.76C4.11733 258.261 3.2 254.144 3.2 249.408C3.2 245.867 3.712 242.688 4.736 239.872C5.80267 237.013 7.33867 234.581 9.344 232.576C11.3493 230.528 13.7813 228.949 16.64 227.84C19.5413 226.731 22.8053 226.176 26.432 226.176C28.5653 226.176 30.72 226.453 32.896 227.008C35.1147 227.52 37.0347 228.267 38.656 229.248C39.7227 229.845 40.448 230.592 40.832 231.488C41.216 232.384 41.3227 233.28 41.152 234.176C41.024 235.072 40.6613 235.84 40.064 236.48C39.5093 237.12 38.8053 237.525 37.952 237.696C37.0987 237.867 36.1387 237.675 35.072 237.12C33.792 236.352 32.448 235.797 31.04 235.456C29.632 235.115 28.2027 234.944 26.752 234.944C23.8933 234.944 21.4827 235.52 19.52 236.672C17.6 237.781 16.1493 239.403 15.168 241.536C14.1867 243.669 13.696 246.293 13.696 249.408C13.696 252.48 14.1867 255.104 15.168 257.28C16.1493 259.456 17.6 261.12 19.52 262.272C21.4827 263.381 23.8933 263.936 26.752 263.936C28.1173 263.936 29.504 263.765 30.912 263.424C32.3627 263.083 33.7493 262.549 35.072 261.824C36.1813 261.269 37.1627 261.077 38.016 261.248C38.912 261.376 39.6373 261.76 40.192 262.4C40.7893 262.997 41.152 263.723 41.28 264.576C41.4507 265.429 41.3653 266.283 41.024 267.136C40.6827 267.989 40.0427 268.715 39.104 269.312C37.5253 270.379 35.584 271.211 33.28 271.808C30.976 272.405 28.6933 272.704 26.432 272.704ZM67.722 272.704C63.2847 272.704 59.3807 271.744 56.01 269.824C52.682 267.861 50.0793 265.131 48.202 261.632C46.3673 258.133 45.45 254.059 45.45 249.408C45.45 245.867 45.962 242.688 46.986 239.872C48.0527 237.013 49.5673 234.581 51.53 232.576C53.4927 230.528 55.8393 228.949 58.57 227.84C61.3433 226.731 64.394 226.176 67.722 226.176C72.2447 226.176 76.17 227.136 79.498 229.056C82.826 230.976 85.4073 233.685 87.242 237.184C89.1193 240.64 90.058 244.693 90.058 249.344C90.058 252.885 89.5247 256.085 88.458 258.944C87.3913 261.803 85.8767 264.256 83.914 266.304C81.9513 268.352 79.6047 269.931 76.874 271.04C74.1433 272.149 71.0927 272.704 67.722 272.704ZM67.722 264.256C70.2393 264.256 72.3727 263.68 74.122 262.528C75.914 261.333 77.2793 259.627 78.218 257.408C79.1993 255.147 79.69 252.48 79.69 249.408C79.69 244.715 78.6447 241.088 76.554 238.528C74.4633 235.925 71.5193 234.624 67.722 234.624C65.2473 234.624 63.114 235.2 61.322 236.352C59.53 237.504 58.1647 239.189 57.226 241.408C56.2873 243.627 55.818 246.293 55.818 249.408C55.818 254.059 56.8633 257.707 58.954 260.352C61.0447 262.955 63.9673 264.256 67.722 264.256ZM71.498 222.592C70.858 223.232 70.1753 223.573 69.45 223.616C68.7247 223.616 68.0633 223.403 67.466 222.976C66.9113 222.507 66.5487 221.952 66.378 221.312C66.2073 220.672 66.3567 220.011 66.826 219.328L71.434 212.544C71.946 211.691 72.5647 211.2 73.29 211.072C74.058 210.901 74.8047 210.965 75.53 211.264C76.298 211.52 76.9167 211.947 77.386 212.544C77.8553 213.099 78.1113 213.739 78.154 214.464C78.1967 215.147 77.898 215.829 77.258 216.512L71.498 222.592ZM102.916 272C101.252 272 99.9715 271.552 99.0755 270.656C98.1795 269.76 97.7315 268.48 97.7315 266.816V232.064C97.7315 230.4 98.1795 229.12 99.0755 228.224C99.9715 227.328 101.252 226.88 102.916 226.88H115.396C123.118 226.88 129.07 228.843 133.252 232.768C137.476 236.651 139.588 242.197 139.588 249.408C139.588 253.035 139.033 256.256 137.924 259.072C136.857 261.845 135.3 264.192 133.252 266.112C131.204 268.032 128.686 269.504 125.7 270.528C122.713 271.509 119.278 272 115.396 272H102.916ZM107.652 263.872H114.82C117.252 263.872 119.364 263.573 121.156 262.976C122.948 262.379 124.441 261.483 125.636 260.288C126.83 259.093 127.726 257.6 128.324 255.808C128.921 253.973 129.22 251.84 129.22 249.408C129.22 244.544 128.004 240.939 125.572 238.592C123.182 236.203 119.598 235.008 114.82 235.008H107.652V263.872ZM152.286 272.576C150.665 272.576 149.427 272.128 148.574 271.232C147.721 270.336 147.294 269.077 147.294 267.456V231.424C147.294 229.803 147.721 228.544 148.574 227.648C149.427 226.752 150.665 226.304 152.286 226.304C153.865 226.304 155.081 226.752 155.934 227.648C156.787 228.544 157.214 229.803 157.214 231.424V267.456C157.214 269.077 156.787 270.336 155.934 271.232C155.123 272.128 153.907 272.576 152.286 272.576ZM188.63 272.704C183.553 272.704 179.243 271.744 175.702 269.824C172.203 267.904 169.537 265.216 167.702 261.76C165.867 258.304 164.95 254.251 164.95 249.6C164.95 246.016 165.483 242.795 166.55 239.936C167.659 237.035 169.238 234.581 171.286 232.576C173.377 230.528 175.894 228.949 178.838 227.84C181.825 226.731 185.195 226.176 188.95 226.176C191.254 226.176 193.558 226.432 195.862 226.944C198.166 227.456 200.385 228.309 202.518 229.504C203.414 230.016 204.011 230.677 204.31 231.488C204.651 232.256 204.737 233.088 204.566 233.984C204.438 234.837 204.097 235.605 203.542 236.288C203.03 236.928 202.347 237.355 201.494 237.568C200.683 237.739 199.745 237.568 198.678 237.056C197.27 236.288 195.777 235.733 194.198 235.392C192.619 235.008 190.891 234.816 189.014 234.816C185.985 234.816 183.446 235.392 181.398 236.544C179.35 237.653 177.814 239.317 176.79 241.536C175.809 243.712 175.318 246.4 175.318 249.6C175.318 254.421 176.47 258.069 178.774 260.544C181.121 263.019 184.577 264.256 189.142 264.256C190.678 264.256 192.257 264.107 193.878 263.808C195.499 263.509 197.099 263.083 198.678 262.528L196.822 266.56V254.272H191.062C189.782 254.272 188.801 253.952 188.118 253.312C187.435 252.672 187.094 251.797 187.094 250.688C187.094 249.536 187.435 248.661 188.118 248.064C188.801 247.424 189.782 247.104 191.062 247.104H201.11C202.39 247.104 203.35 247.445 203.99 248.128C204.673 248.811 205.014 249.792 205.014 251.072V265.92C205.014 267.029 204.801 267.968 204.374 268.736C203.947 269.504 203.222 270.059 202.198 270.4C200.278 271.083 198.123 271.637 195.734 272.064C193.345 272.491 190.977 272.704 188.63 272.704ZM234.722 272.704C230.285 272.704 226.381 271.744 223.01 269.824C219.682 267.861 217.079 265.131 215.202 261.632C213.367 258.133 212.45 254.059 212.45 249.408C212.45 245.867 212.962 242.688 213.986 239.872C215.053 237.013 216.567 234.581 218.53 232.576C220.493 230.528 222.839 228.949 225.57 227.84C228.343 226.731 231.394 226.176 234.722 226.176C239.245 226.176 243.17 227.136 246.498 229.056C249.826 230.976 252.407 233.685 254.242 237.184C256.119 240.64 257.058 244.693 257.058 249.344C257.058 252.885 256.525 256.085 255.458 258.944C254.391 261.803 252.877 264.256 250.914 266.304C248.951 268.352 246.605 269.931 243.874 271.04C241.143 272.149 238.093 272.704 234.722 272.704ZM234.722 264.256C237.239 264.256 239.373 263.68 241.122 262.528C242.914 261.333 244.279 259.627 245.218 257.408C246.199 255.147 246.69 252.48 246.69 249.408C246.69 244.715 245.645 241.088 243.554 238.528C241.463 235.925 238.519 234.624 234.722 234.624C232.247 234.624 230.114 235.2 228.322 236.352C226.53 237.504 225.165 239.189 224.226 241.408C223.287 243.627 222.818 246.293 222.818 249.408C222.818 254.059 223.863 257.707 225.954 260.352C228.045 262.955 230.967 264.256 234.722 264.256ZM278.3 272.704C276.038 272.704 273.734 272.448 271.388 271.936C269.084 271.381 267.078 270.613 265.372 269.632C264.262 269.035 263.494 268.331 263.068 267.52C262.684 266.667 262.534 265.835 262.62 265.024C262.748 264.213 263.089 263.509 263.644 262.912C264.198 262.272 264.902 261.867 265.756 261.696C266.652 261.525 267.633 261.696 268.7 262.208C270.364 263.019 271.942 263.595 273.436 263.936C274.929 264.277 276.422 264.448 277.916 264.448C279.622 264.448 281.052 264.235 282.204 263.808C283.356 263.339 284.23 262.677 284.828 261.824C285.425 260.971 285.724 259.904 285.724 258.624C285.724 256.832 285.105 255.488 283.868 254.592C282.63 253.696 280.817 253.248 278.428 253.248H274.652C273.244 253.248 272.156 252.907 271.388 252.224C270.662 251.499 270.3 250.517 270.3 249.28C270.3 248 270.662 247.019 271.388 246.336C272.156 245.611 273.244 245.248 274.652 245.248H277.468C278.918 245.248 280.134 245.035 281.116 244.608C282.14 244.139 282.929 243.499 283.484 242.688C284.081 241.877 284.38 240.875 284.38 239.68C284.38 237.973 283.782 236.672 282.588 235.776C281.436 234.88 279.75 234.432 277.532 234.432C276.166 234.432 274.822 234.603 273.5 234.944C272.177 235.243 270.748 235.797 269.212 236.608C268.273 237.077 267.398 237.227 266.588 237.056C265.777 236.885 265.094 236.501 264.54 235.904C264.028 235.307 263.686 234.624 263.516 233.856C263.388 233.045 263.494 232.235 263.836 231.424C264.22 230.613 264.902 229.952 265.884 229.44C267.718 228.373 269.702 227.563 271.836 227.008C274.012 226.453 276.209 226.176 278.428 226.176C281.67 226.176 284.444 226.667 286.748 227.648C289.052 228.629 290.822 230.037 292.06 231.872C293.297 233.664 293.916 235.84 293.916 238.4C293.916 240.149 293.574 241.749 292.892 243.2C292.209 244.651 291.249 245.888 290.012 246.912C288.817 247.893 287.345 248.597 285.596 249.024V248.192C288.625 248.704 290.993 249.963 292.7 251.968C294.406 253.973 295.26 256.491 295.26 259.52C295.26 262.208 294.577 264.555 293.212 266.56C291.846 268.523 289.884 270.037 287.324 271.104C284.806 272.171 281.798 272.704 278.3 272.704Z" fill="white"/>
<circle cx="153.552" cy="99.9649" r="93.1046" fill="white"/>
<path d="M147.452 130.862C148.975 139.783 161.35 140.878 164.416 132.362L181.241 85.6256C184.671 76.1005 175.457 66.8861 165.931 70.3152L119.194 87.1404C110.679 90.2057 111.774 102.581 120.694 104.104C134.388 106.442 145.114 117.168 147.452 130.862Z" fill="#EC5C08"/>
<path fill-rule="evenodd" clip-rule="evenodd" d="M153.062 0C98.1231 0 53.5867 44.5364 53.5867 99.4749C53.5867 154.413 98.1231 198.95 153.062 198.95C208 198.95 252.536 154.413 252.536 99.4749C252.536 44.5364 208 0 153.062 0ZM181.459 133.683C171.984 160.002 133.733 156.619 129.025 129.045C128.502 125.983 126.104 123.584 123.042 123.061C95.4676 118.353 92.0839 80.1031 118.403 70.6276L157.26 56.6392C181.019 48.0861 204 71.0674 195.447 94.8254L181.459 133.683Z" fill="#EC5C08"/>
</svg>
