<svg width="318" height="82" viewBox="0 0 318 82" fill="none" xmlns="http://www.w3.org/2000/svg">
<path d="M113.679 56.5715C110.031 56.5715 106.911 55.8515 104.319 54.4115C101.727 52.9715 99.727 50.9555 98.319 48.3635C96.943 45.7395 96.255 42.6515 96.255 39.0995C96.255 36.4435 96.639 34.0595 97.407 31.9475C98.207 29.8035 99.359 27.9795 100.863 26.4755C102.367 24.9395 104.191 23.7555 106.335 22.9235C108.511 22.0915 110.959 21.6755 113.679 21.6755C115.279 21.6755 116.895 21.8835 118.527 22.2995C120.191 22.6835 121.631 23.2435 122.847 23.9795C123.647 24.4275 124.191 24.9875 124.479 25.6595C124.767 26.3315 124.847 27.0035 124.719 27.6755C124.623 28.3475 124.351 28.9235 123.903 29.4035C123.487 29.8835 122.959 30.1875 122.319 30.3155C121.679 30.4435 120.959 30.2995 120.159 29.8835C119.199 29.3075 118.191 28.8915 117.135 28.6355C116.079 28.3795 115.007 28.2515 113.919 28.2515C111.775 28.2515 109.967 28.6835 108.495 29.5475C107.055 30.3795 105.967 31.5955 105.231 33.1955C104.495 34.7955 104.127 36.7635 104.127 39.0995C104.127 41.4035 104.495 43.3715 105.231 45.0035C105.967 46.6355 107.055 47.8835 108.495 48.7475C109.967 49.5795 111.775 49.9955 113.919 49.9955C114.943 49.9955 115.983 49.8675 117.039 49.6115C118.127 49.3555 119.167 48.9555 120.159 48.4115C120.991 47.9955 121.727 47.8515 122.367 47.9795C123.039 48.0755 123.583 48.3635 123.999 48.8435C124.447 49.2915 124.719 49.8355 124.815 50.4755C124.943 51.1155 124.879 51.7555 124.623 52.3955C124.367 53.0355 123.887 53.5795 123.183 54.0275C121.999 54.8275 120.543 55.4515 118.815 55.8995C117.087 56.3475 115.375 56.5715 113.679 56.5715ZM144.646 56.5715C141.318 56.5715 138.39 55.8515 135.862 54.4115C133.366 52.9395 131.414 50.8915 130.006 48.2675C128.63 45.6435 127.942 42.5875 127.942 39.0995C127.942 36.4435 128.326 34.0595 129.094 31.9475C129.894 29.8035 131.03 27.9795 132.502 26.4755C133.974 24.9395 135.734 23.7555 137.782 22.9235C139.862 22.0915 142.15 21.6755 144.646 21.6755C148.038 21.6755 150.982 22.3955 153.478 23.8355C155.974 25.2755 157.91 27.3075 159.286 29.9315C160.694 32.5235 161.398 35.5635 161.398 39.0515C161.398 41.7075 160.998 44.1075 160.198 46.2515C159.398 48.3955 158.262 50.2355 156.79 51.7715C155.318 53.3075 153.558 54.4915 151.51 55.3235C149.462 56.1555 147.174 56.5715 144.646 56.5715ZM144.646 50.2355C146.534 50.2355 148.134 49.8035 149.446 48.9395C150.79 48.0435 151.814 46.7635 152.518 45.0995C153.254 43.4035 153.622 41.4035 153.622 39.0995C153.622 35.5795 152.838 32.8595 151.27 30.9395C149.702 28.9875 147.494 28.0115 144.646 28.0115C142.79 28.0115 141.19 28.4435 139.846 29.3075C138.502 30.1715 137.478 31.4355 136.774 33.0995C136.07 34.7635 135.718 36.7635 135.718 39.0995C135.718 42.5875 136.502 45.3235 138.07 47.3075C139.638 49.2595 141.83 50.2355 144.646 50.2355ZM147.478 18.9875C146.998 19.4675 146.486 19.7235 145.942 19.7555C145.398 19.7555 144.902 19.5955 144.454 19.2755C144.038 18.9235 143.766 18.5075 143.638 18.0275C143.51 17.5475 143.622 17.0515 143.974 16.5395L147.43 11.4515C147.814 10.8115 148.278 10.4435 148.822 10.3475C149.398 10.2195 149.958 10.2675 150.502 10.4915C151.078 10.6835 151.542 11.0035 151.894 11.4515C152.246 11.8675 152.438 12.3475 152.47 12.8915C152.502 13.4035 152.278 13.9155 151.798 14.4275L147.478 18.9875ZM171.042 56.0435C169.794 56.0435 168.834 55.7075 168.162 55.0355C167.49 54.3635 167.154 53.4035 167.154 52.1555V26.0915C167.154 24.8435 167.49 23.8835 168.162 23.2115C168.834 22.5395 169.794 22.2035 171.042 22.2035H180.402C186.194 22.2035 190.658 23.6755 193.794 26.6195C196.962 29.5315 198.546 33.6915 198.546 39.0995C198.546 41.8195 198.13 44.2355 197.298 46.3475C196.498 48.4275 195.33 50.1875 193.794 51.6275C192.258 53.0675 190.37 54.1715 188.13 54.9395C185.89 55.6755 183.314 56.0435 180.402 56.0435H171.042ZM174.594 49.9475H179.97C181.794 49.9475 183.378 49.7235 184.722 49.2755C186.066 48.8275 187.186 48.1555 188.082 47.2595C188.978 46.3635 189.65 45.2435 190.098 43.8995C190.546 42.5235 190.77 40.9235 190.77 39.0995C190.77 35.4515 189.858 32.7475 188.034 30.9875C186.242 29.1955 183.554 28.2995 179.97 28.2995H174.594V49.9475ZM208.069 56.4755C206.853 56.4755 205.925 56.1395 205.285 55.4675C204.645 54.7955 204.325 53.8515 204.325 52.6355V25.6115C204.325 24.3955 204.645 23.4515 205.285 22.7795C205.925 22.1075 206.853 21.7715 208.069 21.7715C209.253 21.7715 210.165 22.1075 210.805 22.7795C211.445 23.4515 211.765 24.3955 211.765 25.6115V52.6355C211.765 53.8515 211.445 54.7955 210.805 55.4675C210.197 56.1395 209.285 56.4755 208.069 56.4755ZM235.327 56.5715C231.519 56.5715 228.287 55.8515 225.631 54.4115C223.007 52.9715 221.007 50.9555 219.631 48.3635C218.255 45.7715 217.567 42.7315 217.567 39.2435C217.567 36.5555 217.967 34.1395 218.767 31.9955C219.599 29.8195 220.783 27.9795 222.319 26.4755C223.887 24.9395 225.775 23.7555 227.983 22.9235C230.223 22.0915 232.751 21.6755 235.567 21.6755C237.295 21.6755 239.023 21.8675 240.751 22.2515C242.479 22.6355 244.143 23.2755 245.743 24.1715C246.415 24.5555 246.863 25.0515 247.087 25.6595C247.343 26.2355 247.407 26.8595 247.279 27.5315C247.183 28.1715 246.927 28.7475 246.511 29.2595C246.127 29.7395 245.615 30.0595 244.975 30.2195C244.367 30.3475 243.663 30.2195 242.863 29.8355C241.807 29.2595 240.687 28.8435 239.503 28.5875C238.319 28.2995 237.023 28.1555 235.615 28.1555C233.343 28.1555 231.439 28.5875 229.903 29.4515C228.367 30.2835 227.215 31.5315 226.447 33.1955C225.711 34.8275 225.343 36.8435 225.343 39.2435C225.343 42.8595 226.207 45.5955 227.935 47.4515C229.695 49.3075 232.287 50.2355 235.711 50.2355C236.863 50.2355 238.047 50.1235 239.263 49.8995C240.479 49.6755 241.679 49.3555 242.863 48.9395L241.471 51.9635V42.7475H237.151C236.191 42.7475 235.455 42.5075 234.943 42.0275C234.431 41.5475 234.175 40.8915 234.175 40.0595C234.175 39.1955 234.431 38.5395 234.943 38.0915C235.455 37.6115 236.191 37.3715 237.151 37.3715H244.687C245.647 37.3715 246.367 37.6275 246.847 38.1395C247.359 38.6515 247.615 39.3875 247.615 40.3475V51.4835C247.615 52.3155 247.455 53.0195 247.135 53.5955C246.815 54.1715 246.271 54.5875 245.503 54.8435C244.063 55.3555 242.447 55.7715 240.655 56.0915C238.863 56.4115 237.087 56.5715 235.327 56.5715ZM269.896 56.5715C266.568 56.5715 263.64 55.8515 261.112 54.4115C258.616 52.9395 256.664 50.8915 255.256 48.2675C253.88 45.6435 253.192 42.5875 253.192 39.0995C253.192 36.4435 253.576 34.0595 254.344 31.9475C255.144 29.8035 256.28 27.9795 257.752 26.4755C259.224 24.9395 260.984 23.7555 263.032 22.9235C265.112 22.0915 267.4 21.6755 269.896 21.6755C273.288 21.6755 276.232 22.3955 278.728 23.8355C281.224 25.2755 283.16 27.3075 284.536 29.9315C285.944 32.5235 286.648 35.5635 286.648 39.0515C286.648 41.7075 286.248 44.1075 285.448 46.2515C284.648 48.3955 283.512 50.2355 282.04 51.7715C280.568 53.3075 278.808 54.4915 276.76 55.3235C274.712 56.1555 272.424 56.5715 269.896 56.5715ZM269.896 50.2355C271.784 50.2355 273.384 49.8035 274.696 48.9395C276.04 48.0435 277.064 46.7635 277.768 45.0995C278.504 43.4035 278.872 41.4035 278.872 39.0995C278.872 35.5795 278.088 32.8595 276.52 30.9395C274.952 28.9875 272.744 28.0115 269.896 28.0115C268.04 28.0115 266.44 28.4435 265.096 29.3075C263.752 30.1715 262.728 31.4355 262.024 33.0995C261.32 34.7635 260.968 36.7635 260.968 39.0995C260.968 42.5875 261.752 45.3235 263.32 47.3075C264.888 49.2595 267.08 50.2355 269.896 50.2355ZM302.58 56.5715C300.884 56.5715 299.156 56.3795 297.396 55.9955C295.668 55.5795 294.164 55.0035 292.884 54.2675C292.052 53.8195 291.476 53.2915 291.156 52.6835C290.868 52.0435 290.756 51.4195 290.82 50.8115C290.916 50.2035 291.172 49.6755 291.588 49.2275C292.004 48.7475 292.532 48.4435 293.172 48.3155C293.844 48.1875 294.58 48.3155 295.38 48.6995C296.628 49.3075 297.812 49.7395 298.932 49.9955C300.052 50.2515 301.172 50.3795 302.292 50.3795C303.572 50.3795 304.644 50.2195 305.508 49.8995C306.372 49.5475 307.028 49.0515 307.476 48.4115C307.924 47.7715 308.148 46.9715 308.148 46.0115C308.148 44.6675 307.684 43.6595 306.756 42.9875C305.828 42.3155 304.468 41.9795 302.676 41.9795H299.844C298.788 41.9795 297.972 41.7235 297.396 41.2115C296.852 40.6675 296.58 39.9315 296.58 39.0035C296.58 38.0435 296.852 37.3075 297.396 36.7955C297.972 36.2515 298.788 35.9795 299.844 35.9795H301.956C303.044 35.9795 303.956 35.8195 304.692 35.4995C305.46 35.1475 306.052 34.6675 306.468 34.0595C306.916 33.4515 307.14 32.6995 307.14 31.8035C307.14 30.5235 306.692 29.5475 305.796 28.8755C304.932 28.2035 303.668 27.8675 302.004 27.8675C300.98 27.8675 299.972 27.9955 298.98 28.2515C297.988 28.4755 296.916 28.8915 295.764 29.4995C295.06 29.8515 294.404 29.9635 293.796 29.8355C293.188 29.7075 292.676 29.4195 292.26 28.9715C291.876 28.5235 291.62 28.0115 291.492 27.4355C291.396 26.8275 291.476 26.2195 291.732 25.6115C292.02 25.0035 292.532 24.5075 293.268 24.1235C294.644 23.3235 296.132 22.7155 297.732 22.2995C299.364 21.8835 301.012 21.6755 302.676 21.6755C305.108 21.6755 307.188 22.0435 308.916 22.7795C310.644 23.5155 311.972 24.5715 312.9 25.9475C313.828 27.2915 314.292 28.9235 314.292 30.8435C314.292 32.1555 314.036 33.3555 313.524 34.4435C313.012 35.5315 312.292 36.4595 311.364 37.2275C310.468 37.9635 309.364 38.4915 308.052 38.8115V38.1875C310.324 38.5715 312.1 39.5155 313.38 41.0195C314.66 42.5235 315.3 44.4115 315.3 46.6835C315.3 48.6995 314.788 50.4595 313.764 51.9635C312.74 53.4355 311.268 54.5715 309.348 55.3715C307.46 56.1715 305.204 56.5715 302.58 56.5715Z" fill="white"/>
<circle cx="41.0167" cy="41.0167" r="38.2018" fill="white"/>
<path d="M38.5139 53.6941C39.1389 57.3544 44.2166 57.8036 45.4743 54.3097L52.3778 35.1331C53.7853 31.2249 50.0046 27.4441 46.0958 28.8511L26.9193 35.7546C23.4255 37.0124 23.8747 42.09 27.535 42.715C33.1535 43.6743 37.5547 48.0754 38.5139 53.6941Z" fill="#EC5C08"/>
<path fill-rule="evenodd" clip-rule="evenodd" d="M40.8156 0C18.2738 0 0 18.2738 0 40.8156C0 63.3572 18.2738 81.6312 40.8156 81.6312C63.3572 81.6312 81.6312 63.3572 81.6312 40.8156C81.6312 18.2738 63.3572 0 40.8156 0ZM52.4672 54.8517C48.5795 65.6507 32.8847 64.2625 30.9532 52.9484C30.7388 51.6921 29.7545 50.7077 28.4981 50.4934C17.1842 48.5616 15.7958 32.8672 26.595 28.9793L42.5384 23.2397C52.2868 19.7303 61.716 29.1597 58.2067 38.9079L52.4672 54.8517Z" fill="#EC5C08"/>
</svg>
